<svg width="1000" height="480" xmlns="http://www.w3.org/2000/svg">
  <rect width="100%" height="100%" fill="#1e1e1e"/>
  <style>
    text {
      font-family: monospace;
      font-size: 16px;
      white-space: pre;
    }
  </style>

  <!-- ASCII Art -->
  <text x="10" y="22" fill="#A5D6A7">                   -`</text>
  <text x="10" y="44" fill="#A5D6A7">                  .o+`</text>
  <text x="10" y="66" fill="#A5D6A7">                 `ooo/</text>
  <text x="10" y="88" fill="#A5D6A7">                `+oooo:</text>
  <text x="10" y="110" fill="#A5D6A7">               `+oooooo:</text>
  <text x="10" y="132" fill="#A5D6A7">               -+oooooo+:</text>
  <text x="10" y="154" fill="#A5D6A7">             `/:-:++oooo+:</text>
  <text x="10" y="176" fill="#A5D6A7">            `/++++/+++++++:</text>
  <text x="10" y="198" fill="#A5D6A7">           `/++++++++++++++:</text>
  <text x="10" y="220" fill="#A5D6A7">          `/+++ooooooooooooo/`</text>
  <text x="10" y="242" fill="#A5D6A7">         ./ooosssso++osssssso+`</text>
  <text x="10" y="264" fill="#A5D6A7">        .oossssso-````/ossssss+`</text>
  <text x="10" y="286" fill="#A5D6A7">       -osssssso.      :ssssssso.</text>
  <text x="10" y="308" fill="#A5D6A7">      :osssssss/        osssso+++.</text>
  <text x="10" y="330" fill="#A5D6A7">     /ossssssss/        +ssssooo/-</text>
  <text x="10" y="352" fill="#A5D6A7">   `/ossssso+/:-        -:/+osssso+-</text>
  <text x="10" y="374" fill="#A5D6A7">  `+sso+:-`                 `.-/+oso:</text>
  <text x="10" y="396" fill="#A5D6A7"> `++:.                           `-/+/</text>
  <text x="10" y="418" fill="#A5D6A7"> .`                                 `</text>

  <!-- Info Section -->
  <text x="440" y="22" fill="#80CBC4">aleaf@leafbook</text>
  <text x="440" y="44" fill="#80CBC4">------------------------</text>
  <text x="440" y="66" fill="#80CBC4">OS: Arch Linux 🌿</text>
  <text x="440" y="88" fill="#80CBC4">Host: Human Vessel v16</text>
  <text x="440" y="110" fill="#80CBC4">Kernel: Consciousness 5.16.0</text>
  <text x="440" y="132" fill="#80CBC4">Uptime: since 2008</text>
  <text x="440" y="154" fill="#80CBC4">Packages: 8000 (pacman, dopamine)</text>
  <text x="440" y="176" fill="#80CBC4">Shell: /bin/thought</text>
  <text x="440" y="198" fill="#80CBC4">Resolution: 20/20 (vision)</text>
  <text x="440" y="220" fill="#80CBC4">WM: Brainstem i3</text>
  <text x="440" y="242" fill="#80CBC4">Theme: Night Owl 🦉</text>
  <text x="440" y="264" fill="#80CBC4">Icons: Neurological</text>
  <text x="440" y="286" fill="#80CBC4">Terminal: Vocal Cords</text>
  <text x="440" y="308" fill="#80CBC4">CPU: 🧠 Brain (Quad Core, Neuro-Threaded)</text>
  <text x="440" y="330" fill="#80CBC4">GPU: 👁️ Visual Cortex (Retina Renderer)</text>
  <text x="440" y="352" fill="#80CBC4">Memory: 🫀 16GB Circulating RAM</text>
  <text x="440" y="374" fill="#80CBC4">Swap: 8GB Emotional Reserve</text>
</svg>
